# xmcd
#
# Track frame offsets: 
#        187
#        17720
#        33817
#        52187
#        67725
#        84977
#        104537
#        121400
#        137992
#        153990
#
# Disc length: 2342 seconds
#
# Revision: 2
# Processed by: cddbd v1.5PL3 Copyright (c) Steve Scherf et al.
# Submitted via: ExactAudioCopy v0.95a3
#
DISCID=7d09240a
DTITLE=Kim Hill - So Far So Good
DYEAR=1994
DGENRE=Country
TTITLE0=Janie's Gone Fishin'
TTITLE1=Is There Any Love Left
TTITLE2=So Far, So Good
TTITLE3=Can't Remember To Forget About You
TTITLE4=Wise Beyond Her Tears
TTITLE5=Walk Me To The Front Door
TTITLE6=Natural Thing
TTITLE7=Did I Hear You Say
TTITLE8=Blue Without You
TTITLE9=When We're Home
EXTD=
EXTT0=
EXTT1=
EXTT2=
EXTT3=
EXTT4=
EXTT5=
EXTT6=
EXTT7=
EXTT8=
EXTT9=
PLAYORDER=
